# xmcd
#
# Track frame offsets: 
#        182
#        14185
#        21075
#        27180
#        37107
#        47255
#        56660
#        68115
#        72390
#        82765
#        93130
#        101820
#        110397
#        121427
#        129080
#        136235
#        150672
#        160915
#        168412
#        184317
#        193850
#        214627
#        224177
#        238402
#
# Disc length: 3393 seconds
#
# Revision: 5
# Processed by: cddbd v1.5.2PL0 Copyright (c) Steve Scherf et al.
# Submitted via: ExactAudioCopyFreeDBPlugin 1.0
#
DISCID=590d3f18
DTITLE=Sesamstraat - Het Beste uit Sesamstraat
DYEAR=1987
DGENRE=Soundtrack
TTITLE0=Vind Je Me Aardig
TTITLE1=Op de Boerderij
TTITLE2=Mijn Naam Is Bob
TTITLE3=Ik Ken een Liedje
TTITLE4=Doe Ze in de Was
TTITLE5=De Week van Roosevelt Jopie
TTITLE6=Tandenpoets Disco
TTITLE7=Ik en Jij
TTITLE8=Ik Wil een Monster voor Elke Dag
TTITLE9=Treintje
TTITLE10=Bij Ons in de Buurt
TTITLE11=Twee Hoofden Is Beter Dan Een
TTITLE12=De Zure Bommentaart
TTITLE13=De Wals van Graaf Tel
TTITLE14=Trots op Mij
TTITLE15=Even Om het Hoekje Vlakbij
TTITLE16=Hij Had Nog Niet Ontbeten
TTITLE17=Ik Geloof in Kleine Dingen
TTITLE18=Troeteldier
TTITLE19=Wat Moet Je Doen met een Ezel
TTITLE20=Ik Ben Ik
TTITLE21=Beginnen met een Plan
TTITLE22=Letter "B"
TTITLE23=Ik Vergeet het Nooit
EXTD=YEAR: 1987
EXTT0=
EXTT1=
EXTT2=
EXTT3=
EXTT4=
EXTT5=
EXTT6=
EXTT7=
EXTT8=
EXTT9=
EXTT10=
EXTT11=
EXTT12=
EXTT13=
EXTT14=
EXTT15=
EXTT16=
EXTT17=
EXTT18=
EXTT19=
EXTT20=
EXTT21=
EXTT22=
EXTT23=
PLAYORDER=
